# xmcd CD database file
#
# Track frame offsets:
#	150
#	15006
#	31697
#	48710
#	65087
#	76924
#	90515
#	105186
#	119604
#	132138
#	144856
#	158531
#	172921
#
# Disc length: 2523 seconds
#
# Revision: 1
# Processed by: cddbd v1.5.2PL0 Copyright (c) Steve Scherf et al.
# Submitted via: CDex 1.51
#
DISCID=8d09d90d
DTITLE=Ray Stevens - The Collection [CD 1)
DYEAR=2003
DGENRE=Country
TTITLE0=The Streak
TTITLE1=Ahab The Arab
TTITLE2=Along Came Jones
TTITLE3=Bridget The Midget (Queen Of the Blues)
TTITLE4=Freddie Feelgood
TTITLE5=Funny Man
TTITLE6=Gitarzan
TTITLE7=Harry The Hairy Ape
TTITLE8=Yakety Yak
TTITLE9=A Mama And A Papa
TTITLE10=Have A Little Talk With Myself
TTITLE11=America Communicate With Me
TTITLE12=Sunset Strip
EXTD=Madacy Entertainment YEAR: 2003
EXTT0=
EXTT1=
EXTT2=
EXTT3=
EXTT4=
EXTT5=
EXTT6=
EXTT7=
EXTT8=
EXTT9=
EXTT10=
EXTT11=
EXTT12=
PLAYORDER=
